<mxfile host="65bd71144e">
    <diagram id="mPvUMKu9Zc1fhSnzkK80" name="Page-1">
        <mxGraphModel dx="597" dy="316" grid="1" gridSize="10" guides="1" tooltips="1" connect="1" arrows="1" fold="1" page="1" pageScale="1" pageWidth="850" pageHeight="1100" math="0" shadow="0">
            <root>
                <mxCell id="0"/>
                <mxCell id="1" parent="0"/>
                <mxCell id="pIjAp90iyk_Fyt65LuK3-6" value="user profile" style="text;html=1;strokeColor=none;fillColor=none;align=center;verticalAlign=middle;whiteSpace=wrap;rounded=0;fontSize=24;" parent="1" vertex="1">
                    <mxGeometry x="249.29" y="150" width="280" height="30" as="geometry"/>
                </mxCell>
                <mxCell id="pIjAp90iyk_Fyt65LuK3-8" value="歷史訂單" style="rounded=0;whiteSpace=wrap;html=1;fontSize=24;" parent="1" vertex="1">
                    <mxGeometry x="329.29" y="190" width="120" height="60" as="geometry"/>
                </mxCell>
                <mxCell id="pIjAp90iyk_Fyt65LuK3-9" value="" style="endArrow=classic;html=1;rounded=0;fontSize=24;exitX=0.5;exitY=1;exitDx=0;exitDy=0;" parent="1" source="pIjAp90iyk_Fyt65LuK3-8" edge="1">
                    <mxGeometry width="50" height="50" relative="1" as="geometry">
                        <mxPoint x="459.29" y="480" as="sourcePoint"/>
                        <mxPoint x="389.29" y="330" as="targetPoint"/>
                    </mxGeometry>
                </mxCell>
                <mxCell id="pIjAp90iyk_Fyt65LuK3-11" value="" style="rounded=0;whiteSpace=wrap;html=1;fontSize=24;" parent="1" vertex="1">
                    <mxGeometry x="200" y="330" width="378.57" height="530" as="geometry"/>
                </mxCell>
                <mxCell id="pIjAp90iyk_Fyt65LuK3-12" value="" style="rounded=0;whiteSpace=wrap;html=1;fontSize=24;" parent="1" vertex="1">
                    <mxGeometry x="230" y="500" width="310" height="340" as="geometry"/>
                </mxCell>
                <mxCell id="pIjAp90iyk_Fyt65LuK3-13" value="" style="rounded=0;whiteSpace=wrap;html=1;fontSize=24;" parent="1" vertex="1">
                    <mxGeometry x="350" y="410" width="70" height="30" as="geometry"/>
                </mxCell>
                <mxCell id="pIjAp90iyk_Fyt65LuK3-14" value="時間區間" style="text;html=1;strokeColor=none;fillColor=none;align=center;verticalAlign=middle;whiteSpace=wrap;rounded=0;fontSize=24;" parent="1" vertex="1">
                    <mxGeometry x="230" y="410" width="100" height="30" as="geometry"/>
                </mxCell>
                <mxCell id="pIjAp90iyk_Fyt65LuK3-15" value="" style="rounded=0;whiteSpace=wrap;html=1;fontSize=24;" parent="1" vertex="1">
                    <mxGeometry x="350" y="450" width="70" height="30" as="geometry"/>
                </mxCell>
                <mxCell id="pIjAp90iyk_Fyt65LuK3-16" value="價格區間" style="text;html=1;strokeColor=none;fillColor=none;align=center;verticalAlign=middle;whiteSpace=wrap;rounded=0;fontSize=24;" parent="1" vertex="1">
                    <mxGeometry x="220" y="450" width="114.29" height="30" as="geometry"/>
                </mxCell>
                <mxCell id="pIjAp90iyk_Fyt65LuK3-17" value="" style="rounded=0;whiteSpace=wrap;html=1;fontSize=24;" parent="1" vertex="1">
                    <mxGeometry x="460" y="450" width="80" height="30" as="geometry"/>
                </mxCell>
                <mxCell id="pIjAp90iyk_Fyt65LuK3-18" value="" style="rounded=0;whiteSpace=wrap;html=1;fontSize=24;" parent="1" vertex="1">
                    <mxGeometry x="460" y="410" width="80" height="30" as="geometry"/>
                </mxCell>
                <mxCell id="pIjAp90iyk_Fyt65LuK3-20" value="" style="rounded=0;whiteSpace=wrap;html=1;fontSize=24;" parent="1" vertex="1">
                    <mxGeometry x="230" y="360" width="250" height="30" as="geometry"/>
                </mxCell>
                <mxCell id="4" value="搜尋" style="rounded=0;whiteSpace=wrap;html=1;fontSize=24;" vertex="1" parent="1">
                    <mxGeometry x="490" y="360" width="50" height="30" as="geometry"/>
                </mxCell>
            </root>
        </mxGraphModel>
    </diagram>
</mxfile>